<svg class="Logo" xmlns="http://www.w3.org/2000/svg" viewBox="0 0 478.4 101.1">
  <style>
    .Logo__icon,
    .Logo__letter,
    .Logo__top-type { fill: #0082a5; }
  </style>

  <g class="Logo__top-type">
    <path class="Logo__letter" d="M120,56.7l-7.2-12.6h-4.7v12.6h-9.3V18.1h14.4c9.7,0,15.6,5.3,15.6,13.3c0,5.2-2.5,9.1-7,11.2l8.6,14.2H120z M108.1,35.9h6.4c3.3,0,4.6-2.5,4.6-4.6s-1.3-4.6-4.6-4.6h-6.4V35.9z"></path>
    <path class="Logo__letter" d="M175.9,48.1v8.7h-28.4V18.1h28.1v8.7h-18.8v6.3h14.7v8.1h-14.7v6.8H175.9z"></path>
    <path class="Logo__letter" d="M219.2,30.1c-1.8-2.2-5.1-3.6-8.1-3.6c-6.4,0-10.4,4.6-10.4,10.9c0,6.7,4.4,10.8,10.4,10.8 c3.7,0,7.2-1.9,8.8-4.5l9.4,2.4c-3.2,6.8-10.1,11.4-18.2,11.4c-11.1,0-20-8.4-20-20.1c0-11.6,8.9-20.1,20-20.1 c7.6,0,14.1,4.1,17.6,10.3L219.2,30.1z"></path>
    <path class="Logo__letter" d="M263.5,17.3c11.1,0,20.1,8.4,20.1,20.1c0,11.6-9,20.1-20.1,20.1s-20-8.4-20-20.1 C243.4,25.8,252.4,17.3,263.5,17.3z M263.5,48.4c6.3,0,10.4-4.5,10.4-10.9c0-6.5-4.1-10.9-10.4-10.9c-6.2,0-10.4,4.4-10.4,10.9 C253.1,43.9,257.2,48.4,263.5,48.4z"></path>
    <path class="Logo__letter" d="M334.6,18.1l-14.9,38.6h-10l-14.9-38.6H305l7.5,21.3c1.5,4.3,2.2,7.1,2.2,7.1h0.1c0.1,0,0.7-2.8,2.2-7.1 l7.5-21.3H334.6z"></path> <path class="Logo__letter" d="M377.8,48.1v8.7h-28.4V18.1h28.1v8.7h-18.8v6.3h14.7v8.1h-14.7v6.8H377.8z"></path>
    <path class="Logo__letter" d="M418.2,56.7L411,44.2h-4.7v12.6H397V18.1h14.4c9.7,0,15.6,5.3,15.6,13.3c0,5.2-2.5,9.1-7,11.2l8.6,14.2H418.2z M406.3,35.9h6.4c3.3,0,4.6-2.5,4.6-4.6s-1.3-4.6-4.6-4.6h-6.4V35.9z"></path>
    <path class="Logo__letter" d="M478.4,18.1l-14.8,21.5v17.1h-9.2V39.6l-14.8-21.5H450l7,10.3c1.1,1.7,1.9,2.8,2,2.8h0.1c0.1,0,0.9-1.2,2-2.8 l7-10.3H478.4z"></path>
  </g>
  <g class="Logo__bottom-type">
    <path class="Logo__letter" d="M123.6,71.8l-6.3,18.7h-1.9l-3.1-9.8c-0.8-2.6-1-3.6-1-3.6h0c0,0-0.2,1-1,3.6l-3.1,9.8h-1.9l-6.3-18.7h2.3 l4.2,12.6c0.5,1.6,0.8,2.7,0.8,2.7h0c0,0,0.2-1.1,0.8-2.7l3.3-10.1h1.9l3.3,10.1c0.6,1.6,0.8,2.7,0.8,2.7h0c0,0,0.3-1.1,0.8-2.7 l4.2-12.6H123.6z"></path>
    <path class="Logo__letter" d="M139.5,71.4c5.4,0,9.7,4.1,9.7,9.7c0,5.6-4.3,9.7-9.7,9.7c-5.4,0-9.7-4.1-9.7-9.7 C129.8,75.5,134.1,71.4,139.5,71.4z M139.5,88.7c4.2,0,7.4-3.1,7.4-7.6c0-4.5-3.2-7.6-7.4-7.6c-4.2,0-7.4,3-7.4,7.6 C132,85.6,135.2,88.7,139.5,88.7z"></path>
    <path class="Logo__letter" d="M168.7,90.5l-4.2-7c-0.3,0-0.6,0-1,0h-3.5v7h-2.2V71.8h5.7c4.4,0,7,2.3,7,5.9c0,2.7-1.4,4.6-3.9,5.4l4.5,7.4 H168.7z M163.8,81.6c3,0,4.5-1.6,4.5-3.9c0-2.4-1.7-3.8-4.5-3.8h-3.7v7.7H163.8z"></path>
    <path class="Logo__letter" d="M192.4,88.4v2.1h-12.2V71.8h2.2v16.6H192.4z"></path>
    <path class="Logo__letter" d="M208.6,71.8c5.3,0,9.6,3.8,9.6,9.4c0,5.5-4.3,9.2-9.5,9.2h-8V71.8H208.6z M208.7,88.4c3.9,0,7.2-2.7,7.2-7.2 c0-4.5-3.4-7.4-7.4-7.4h-5.7v14.5H208.7z"></path>
    <path class="Logo__letter" d="M249.1,71.8l-6.3,18.7h-1.9l-3.1-9.8c-0.8-2.6-1-3.6-1-3.6h0c0,0-0.2,1-1,3.6l-3.1,9.8h-1.9l-6.3-18.7h2.3 l4.2,12.6c0.5,1.6,0.8,2.7,0.8,2.7h0c0,0,0.2-1.1,0.8-2.7l3.3-10.1h1.9l3.3,10.1c0.6,1.6,0.8,2.7,0.8,2.7h0c0,0,0.3-1.1,0.8-2.7 l4.2-12.6H249.1z"></path>
    <path class="Logo__letter" d="M257.2,90.5V71.8h2.2v18.7H257.2z"></path> <path class="Logo__letter" d="M277.5,71.8c5.3,0,9.6,3.8,9.6,9.4c0,5.5-4.3,9.2-9.5,9.2h-8V71.8H277.5z M277.7,88.4c3.9,0,7.2-2.7,7.2-7.2 c0-4.5-3.4-7.4-7.4-7.4h-5.7v14.5H277.7z"></path>
    <path class="Logo__letter" d="M308.5,88.4v2.1h-12.6V71.8h12.4v2.1h-10.3v5.8h8.2v1.9h-8.2v6.8H308.5z"></path>
  </g>
  <path class="Logo__icon" d="M41.5,0L0,18.4V46c0,25.5,17.8,49.3,41.5,55.1C65.2,95.3,83,71.5,83,46V18.4L41.5,0z M68,50.6 c0,4.8-3.2,9.6-8,9.6H50v8c0,4.8-4.2,8.8-9,8.8c-4.8,0-9-4-9-8.8v-8h-7.3c-4.8,0-9.7-4.7-9.7-9.6v0c0-4.8,4.9-8.4,9.7-8.4H32v-9.2 c0-4.9,4.1-8.8,9-8.8c4.9,0,9,3.9,9,8.8v5.7l-9,3.1l-9,3.1v5.7c0,4.9,4.1,8.8,9,8.8c4.9,0,9-3.9,9-8.8v-8.4h10 C64.8,42.1,68,45.7,68,50.6L68,50.6z"></path>
</svg>
